<?xml version="1.0" encoding="UTF-8" standalone="no"?>
<svg
   id="Lager_2"
   viewBox="0 0 228 228.00001"
   version="1.1"
   width="228"
   height="228"
   xmlns="http://www.w3.org/2000/svg"
   xmlns:svg="http://www.w3.org/2000/svg">
  <defs
     id="defs1">
    <style
       id="style1">.cls-1,.cls-2{fill:#003660;}.cls-2{isolation:isolate;}</style>
  </defs>
  <g
     id="g15"
     transform="translate(-19.949964,-41.62)">
    <g
       id="g13">
      <path
         class="cls-2"
         d="m 60.51,197.31 c 12.92,-0.33 23.72,-7.04 32.2,-19.7 -0.95,-1.14 -2.32,-2.66 -3.51,-3.4 -4.58,-2.86 -9.38,-3.6 -13.19,-2.04 -2.87,1.14 -4.52,2.92 -5.07,5.42 -0.94,4.3 1.71,9.42 2.87,10.65 l 2.91,3.06 -4.22,-0.21 c -17.07,-0.85 -30.57,-8.87 -37.04,-22.02 -5.97,-12.12 -5.01,-26.92 2.46,-37.7 9.2,-13.28 29.38,-20.57 51.63,-11.8 -5.85,-6.49 -15.34,-13.84 -28.67,-14.18 -9.81,-0.24 -19.31,3.64 -26.76,10.92 -9,8.8 -14.15,21.66 -14.12,35.28 0.02,13.42 5.2,26.16 14.21,34.93 7.38,7.19 16.72,11.02 26.29,10.79 z"
         id="path1" />
      <path
         class="cls-2"
         d="m 98.97,215.02 c -2.62,-2.15 -4.18,-4.6 -4.18,-7.39 0,-2.15 0.97,-5.2 4.8,-8.02 -0.33,-5.03 -1.1,-9.24 -2.1,-12.73 -21.05,30.94 -47.88,22.85 -55.82,19.46 -6.22,-2.66 -10.84,-6.4 -14.12,-9.73 5.61,14.74 20.36,42.65 50.45,37.7 9.62,-1.6 18.84,-10.19 20.97,-19.3 z"
         id="path2" />
      <path
         class="cls-2"
         d="m 207.39,197.31 c 9.57,0.24 18.91,-3.6 26.3,-10.79 9.01,-8.77 14.19,-21.5 14.21,-34.92 0.02,-13.62 -5.13,-26.48 -14.13,-35.28 -7.45,-7.29 -16.96,-11.17 -26.77,-10.92 -13.33,0.33 -22.81,7.68 -28.66,14.18 22.25,-8.76 42.43,-1.48 51.63,11.8 7.47,10.77 8.44,25.57 2.47,37.7 -6.47,13.15 -19.98,21.17 -37.05,22.02 l -4.22,0.21 2.91,-3.06 c 1.17,-1.22 3.81,-6.35 2.87,-10.65 -0.55,-2.5 -2.2,-4.27 -5.08,-5.43 -3.8,-1.56 -8.6,-0.82 -13.18,2.04 -1.19,0.74 -2.55,2.26 -3.51,3.4 8.47,12.66 19.27,19.36 32.2,19.7 z"
         id="path3" />
      <path
         class="cls-2"
         d="m 113.83,131.32 4.98,13.83 c 2.23,5.73 4.34,11.15 5.97,17.91 2.69,11.19 3.34,20.39 3.86,27.79 l 0.09,1.31 c 0,0 0,0.13 0,0.15 1.87,-0.06 4.91,-0.15 4.91,-0.15 0,0 0.57,0.07 0.58,0 0,0 3.05,0.1 4.92,0.15 0,-0.03 0.11,-1.54 0.11,-1.54 0.55,-7.76 1.17,-16.56 3.86,-27.71 1.63,-6.77 3.74,-12.2 5.98,-17.95 0,0 4.97,-13.79 4.97,-13.79 2.82,-8.81 3.98,-17.28 3.98,-25.24 0,-32.29 -19.09,-56.36 -24.1,-62.12 -5.02,5.73 -24.12,29.68 -24.12,62.01 0,7.99 1.17,16.49 4,25.35 z"
         id="path4" />
      <path
         class="cls-2"
         d="m 78.17,99.4 c -3.06,-6.18 -4.34,-12.04 -4.34,-17.45 0,-12.83 6.84,-23.1 12.24,-29.24 -11.61,5.47 -33.5,18.88 -49.51,45.14 7.99,-5.14 21.81,-9.11 41.61,1.55 z"
         id="path5" />
      <path
         class="cls-2"
         d="m 134.23,213.79 c 18.91,0 27.88,-4.56 29.23,-6.15 -1.36,-1.59 -10.33,-6.15 -29.23,-6.15 h -0.58 c -18.9,0 -27.87,4.56 -29.23,6.15 1.35,1.59 10.32,6.15 29.23,6.15 z"
         id="path6" />
      <path
         class="cls-2"
         d="m 108.34,223.01 c -0.82,3.06 -8.68,28.22 -43.55,23.84 6.27,4.45 17.14,11.42 28.25,15.15 15.52,-7.5 24.25,-20.91 25.85,-39.94 -3.7,-0.53 -7.02,-1.25 -9.98,-2.15 -0.25,1.42 -0.55,3.08 -0.58,3.1 z"
         id="path7" />
      <path
         class="cls-2"
         d="m 83.83,159.34 c 12.82,3.73 22.12,16.84 24.89,35.07 0,0 0.06,0.61 0.12,1.09 2.86,-0.87 5.98,-1.59 9.42,-2.11 -0.69,-9.57 -2.63,-31.88 -13.69,-51.14 -7.84,-15.34 -30.29,-19.41 -45.12,-12.8 -5.1,2.28 -14.81,8.43 -14.81,22.11 0,4.1 0.87,8.89 3.01,14.45 3.92,7.56 8.89,10.8 12.19,12.33 -0.4,-1.32 -0.72,-2.77 -0.72,-4.34 0,-2.91 0.89,-6.12 3.49,-9.09 5.03,-5.78 13.16,-7.9 21.23,-5.56 z"
         id="path8" />
      <path
         class="cls-2"
         d="m 205.3,164.9 c 2.59,2.98 3.48,6.18 3.48,9.09 0,1.58 -0.32,3.03 -0.72,4.36 3.3,-1.51 8.25,-4.71 12.13,-12.17 2.16,-5.63 3.05,-10.47 3.05,-14.61 0,-13.72 -9.69,-19.85 -14.79,-22.11 -14.83,-6.61 -37.27,-2.55 -45.14,12.87 -11.04,19.19 -12.97,41.5 -13.65,51.06 3.45,0.52 6.56,1.24 9.41,2.11 0.05,-0.44 0.11,-0.96 0.12,-1.09 2.77,-18.23 12.07,-31.34 24.89,-35.07 8.07,-2.34 16.21,-0.22 21.23,5.56 z"
         id="path9" />
      <path
         class="cls-2"
         d="m 159.55,223.01 -0.02,0.05 c 0,0 -0.3,-1.69 -0.56,-3.14 -2.95,0.89 -6.27,1.61 -9.98,2.14 1.62,19.04 10.35,32.44 25.85,39.94 11.14,-3.73 22,-10.7 28.26,-15.15 -34.87,4.38 -42.74,-20.78 -43.56,-23.84 z"
         id="path10" />
      <path
         class="cls-2"
         d="m 189.73,99.4 c 19.79,-10.67 33.61,-6.69 41.61,-1.55 -16.01,-26.26 -37.9,-39.67 -49.52,-45.14 5.4,6.14 12.24,16.41 12.24,29.25 0,5.4 -1.28,11.27 -4.33,17.44 z"
         id="path11" />
      <path
         class="cls-2"
         d="m 134.23,223.11 c 0,0 -0.3,-0.02 -0.58,0 0,0 -3.03,-0.09 -4.92,-0.15 -0.59,15.19 -2.59,31.04 -16.81,44.5 8.38,1.89 19.4,2.15 21.76,2.16 h 0.51 c 2.37,-0.01 13.39,-0.27 21.76,-2.16 -14.2,-13.47 -16.2,-29.31 -16.8,-44.5 -1.9,0.06 -4.93,0.15 -4.93,0.15 z"
         id="path12" />
      <path
         class="cls-2"
         d="m 226.24,206.35 c -7.94,3.38 -34.78,11.47 -55.82,-19.46 -1,3.49 -1.77,7.7 -2.1,12.74 3.82,2.81 4.79,5.87 4.79,8.01 0,2.79 -1.56,5.23 -4.18,7.38 2.13,9.11 11.35,17.71 20.97,19.3 30.09,4.96 44.83,-22.95 50.45,-37.7 -3.28,3.33 -7.9,7.07 -14.1,9.72 v 0 z"
         id="path13" />
    </g>
    <path
       class="cls-2"
       d="m 97.56,112.9 c -1.21,-5.27 -2.01,-10.38 -2.01,-15.13 0,-27.52 17.93,-46.2 28.56,-54.92 -15.85,4.04 -28.07,12.75 -33.74,25.19 -2.33,5.12 -3.47,10.55 -3.47,16.05 0,9.8 3.76,19.81 10.65,28.82 z"
       id="path14" />
    <path
       class="cls-2"
       d="m 170.03,112.9 c 1.21,-5.27 2.01,-10.38 2.01,-15.13 0,-27.52 -17.93,-46.2 -28.56,-54.92 15.85,4.04 28.07,12.75 33.74,25.19 2.33,5.12 3.47,10.55 3.47,16.05 0,9.8 -3.76,19.81 -10.65,28.82 z"
       id="path15" />
  </g>
</svg>
