<?xml version="1.0" encoding="UTF-8" standalone="no"?>
<!-- Created with Inkscape (http://www.inkscape.org/) -->

<svg
   width="256"
   height="256"
   viewBox="0 0 256 256"
   version="1.1"
   id="svg1"
   xmlns="http://www.w3.org/2000/svg"
   xmlns:svg="http://www.w3.org/2000/svg">
  <defs
     id="defs1" />
  <g
     id="layer1"
     transform="matrix(3.7795065,0,0,3.7795065,-309.87707,-379.59871)">
    <path
       style="fill:currentColor"
       d="m 96.719587,165.65169 c 0.0321,-0.0758 0.0802,-0.25498 0.10683,-0.39822 0.0295,-0.15882 2.50605,-4.00605 6.346693,-9.85946 6.04458,-9.21238 6.30781,-9.59906 6.53524,-9.60028 0.21979,-0.001 0.34435,0.14703 1.71861,2.0449 0.8149,1.12539 1.50691,2.06179 1.53781,2.08088 0.0309,0.0191 0.67795,-1.45966 1.43791,-3.28613 1.36766,-3.28701 1.38405,-3.32085 1.60853,-3.32085 0.22334,0 0.23489,0.0228 0.7573,1.49583 2.10224,5.92761 2.54012,7.12082 2.59357,7.06734 0.0838,-0.0839 3.0601,-5.71202 3.0601,-5.78666 0,-0.0332 0.1052,-0.0604 0.23379,-0.0604 0.20238,0 0.28541,0.0767 0.61815,0.57078 0.21141,0.31393 2.91045,4.60955 5.99788,9.54581 4.3158,6.90021 5.62602,9.05238 5.66763,9.30963 l 0.0541,0.33459 h -19.16629 c -18.223373,0 -19.163413,-0.007 -19.107873,-0.13777 z m 22.729493,-20.58746 c -0.17869,-0.22138 -0.93804,-1.83448 -2.14096,-4.54808 -0.70024,-1.57963 -1.30115,-2.90058 -1.33536,-2.93543 -0.0989,-0.1008 -1.23338,2.51913 -2.55866,5.90894 -0.71713,1.83429 -0.57302,1.8526 -2.29945,-0.29217 -0.7306,-0.90764 -1.3515,-1.65162 -1.37979,-1.6533 -0.0283,-0.002 -0.52427,0.65226 -1.10219,1.45319 -1.34943,1.87014 -1.33001,1.86479 -1.78493,0.49228 -0.55756,-1.68221 -0.66452,-2.38683 -0.61844,-4.07419 0.0315,-1.15157 0.0918,-1.75313 0.28846,-2.87358 0.28785,-1.64034 0.33322,-2.88724 0.13763,-3.78262 -0.0846,-0.38733 -0.35643,-1.017 -0.90065,-2.0863 -0.83041,-1.63162 -1.25108,-2.76052 -1.50949,-4.05085 -0.84341,-4.21136 -0.006,-9.98743 2.05158,-14.14331 1.61536,-3.2634 4.03627,-5.97696 7.18969,-8.05881 1.24116,-0.8194 2.36526,-1.40161 2.83422,-1.46795 0.2165,-0.0306 0.49633,-0.081 0.62184,-0.11188 0.1625,-0.04 0.21216,-0.0302 0.17249,0.034 -0.0316,0.0512 -0.008,0.0901 0.0538,0.0901 0.0883,0 0.0656,0.22535 -0.11665,1.16124 -0.35332,1.81416 -0.90167,5.12503 -1.08549,6.55414 -0.35267,2.74186 -0.29382,3.94434 0.27647,5.64879 0.28576,0.85409 0.9917,2.33387 1.38855,2.91067 l 0.23737,0.345 1.50145,-3.11385 c 1.73742,-3.60323 1.63502,-3.48367 2.21183,-2.58244 1.89928,2.9675 4.29301,7.36447 5.23965,9.62454 1.15372,2.75449 1.94931,5.20487 2.34829,7.23268 0.1978,1.00532 0.21135,1.21252 0.21423,3.27755 0.003,2.11338 -0.006,2.24586 -0.21298,3.20865 -0.49053,2.27998 -1.42158,4.43544 -2.90503,6.7254 -0.70581,1.08954 -0.60578,1.14307 -2.23045,-1.19378 -0.73611,-1.05879 -1.35965,-1.92624 -1.38564,-1.92767 -0.026,-0.001 -0.46627,0.67939 -0.97841,1.51292 -1.62141,2.63895 -1.74335,2.81454 -1.9546,2.81454 -0.10392,0 -0.2247,-0.0443 -0.26838,-0.0984 z m -0.73412,-12.15206 c 1.0997,-1.53878 1.71454,-2.77518 2.09131,-4.20547 0.21636,-0.82135 0.54666,-2.70108 0.63259,-3.6001 0.0528,-0.55276 0.0612,-0.57078 0.26523,-0.57078 0.3023,0 1.62904,1.26799 2.58088,2.4666 0.41847,0.52694 0.80869,1.01043 0.86718,1.07441 0.11194,0.12245 -0.29328,-0.95867 -0.8902,-2.37502 -0.41533,-0.98549 -1.16104,-2.31214 -2.22639,-3.96085 -1.1475,-1.77583 -1.30183,-2.00461 -1.35324,-2.00615 -0.026,-7.8e-4 -0.54181,1.21198 -1.14634,2.69503 -1.34074,3.28918 -1.23849,3.19316 -2.01689,1.89396 -1.61238,-2.69115 -3.18123,-5.60756 -3.52775,-6.55787 -0.46245,-1.26829 -1.08527,-4.03921 -1.34302,-5.97509 -0.0525,-0.39466 -0.12103,-0.71756 -0.15218,-0.71756 -0.0877,0 -0.82552,0.82932 -1.43595,1.61393 -1.87646,2.41189 -3.27316,5.2385 -3.75374,7.59675 -0.34895,1.71235 -0.36224,3.99916 -0.0335,5.76741 0.1518,0.81649 0.51256,2.1847 0.57603,2.18462 0.0263,-4e-5 0.18283,-0.69974 0.34782,-1.55489 0.37074,-1.92154 0.62273,-2.69309 1.30575,-3.99802 0.48354,-0.92383 0.55608,-1.02304 0.76331,-1.04392 0.22765,-0.0229 0.23963,-0.002 2.03974,3.61606 1.84929,3.7166 2.11388,4.16572 3.195,5.42336 0.58576,0.6814 2.6679,2.83288 2.73974,2.83098 0.0267,-7.1e-4 0.24032,-0.26953 0.47463,-0.59739 z"
       id="path5" />
  </g>
</svg>
