<?xml version="1.0" encoding="UTF-8" standalone="no"?>
<!-- Created with Inkscape (http://www.inkscape.org/) -->

<svg
   width="256"
   height="256"
   viewBox="0 0 256 256"
   version="1.1"
   id="svg1"
   xmlns="http://www.w3.org/2000/svg"
   xmlns:svg="http://www.w3.org/2000/svg">
  <defs
     id="defs1" />
  <g
     id="layer1"
     transform="matrix(3.7795535,0,0,3.7795535,-309.88252,-379.60501)">
    <path
       style="fill:currentColor"
       d="m 116.32371,165.69316 c -0.0649,-0.042 -0.2598,-0.0774 -0.433,-0.0786 -0.23435,-0.002 -2.09484,-0.75484 -7.27191,-2.94355 l -6.95699,-2.9412 -0.87363,0.95444 c -1.022423,1.11699 -1.139023,1.1687 -1.631733,0.72356 -0.17098,-0.15447 -0.34365,-0.28086 -0.38371,-0.28086 -0.0401,0 -0.96362,0.95655 -2.05238,2.12567 l -1.97955,2.12567 h -0.61183 c -0.69163,0 -1.20416,-0.14819 -2.03419,-0.58816 -1.731406,-0.91776 -4.026927,-3.09634 -5.060771,-4.80298 -0.182263,-0.30088 -0.259347,-0.64958 -0.36281,-1.64122 -0.03089,-0.29607 -0.01644,-0.48995 0.04077,-0.54716 0.04874,-0.0487 0.08861,-0.16309 0.08861,-0.25412 0,-0.10328 0.421738,-0.62475 1.121879,-1.38717 0.617033,-0.67192 1.440478,-1.56925 1.829879,-1.99406 l 0.708003,-0.77238 -0.3796,-0.33403 c -0.299996,-0.26398 -0.374171,-0.37689 -0.353723,-0.53842 0.01796,-0.14183 1.371313,-1.67504 4.421613,-5.00922 4.71925,-5.15845 4.57346,-5.02266 4.98148,-4.63934 l 0.17616,0.16548 0.21662,-0.34262 c 0.808053,-1.27805 2.596103,-4.70428 3.300773,-6.32489 1.34528,-3.09384 2.21171,-6.44925 2.55618,-9.8992 l 0.0843,-0.84434 -0.42466,-0.70442 c -0.64129,-1.06376 -0.85745,-1.65394 -0.90061,-2.45904 -0.041,-0.76545 0.0453,-1.12536 0.3594,-1.49868 0.31408,-0.37327 0.74512,-0.53416 1.43643,-0.53617 1.30759,-0.004 2.80563,0.65418 5.41459,2.37827 6.95412,4.59551 16.79401,14.28324 18.79033,18.49976 0.63661,1.34462 0.64377,2.51102 0.0191,3.11354 -0.35411,0.34156 -0.59358,0.41248 -1.39277,0.41248 -0.87483,0 -1.46249,-0.17246 -2.70816,-0.79476 l -0.93359,-0.46639 -0.73143,0.1177 c -4.36892,0.70303 -9.1253,2.95454 -14.60352,6.91281 l -1.14156,0.82483 0.0254,0.31374 c 0.0232,0.28664 -0.013,0.35523 -0.41951,0.79429 -0.2447,0.26431 -0.42637,0.51055 -0.40372,0.5472 0.0226,0.0367 2.75298,1.21575 6.06739,2.6202 l 6.02619,2.55356 8.8e-4,0.23327 c 0.001,0.35142 -2.9142,7.0644 -3.08787,7.10981 -0.0765,0.02 -0.13912,0.0677 -0.13912,0.10593 0,0.0924 -0.24534,0.0867 -0.39364,-0.009 z m 11.36766,-23.71691 c -0.54725,-0.94086 -2.02684,-2.86732 -3.36776,-4.38488 -4.64927,-5.26173 -12.90465,-12.22756 -16.76196,-14.14362 l -0.40979,-0.20356 0.5511,0.54997 c 0.30311,0.30249 2.0149,1.95312 3.80399,3.66807 l 3.25289,3.11809 h 0.52921 c 1.64124,0 3.19269,1.0312 4.00452,2.66165 0.24894,0.49998 0.29234,0.67224 0.33128,1.31486 l 0.0448,0.73949 1.92884,1.82585 c 4.10103,3.88209 4.05714,3.84388 5.07737,4.42107 0.95297,0.53915 1.11821,0.60961 1.01549,0.43301 z m 0.006,-7.99093 c 0.0946,-0.95197 0.27845,-3.74545 0.24847,-3.77543 -0.0173,-0.0173 -0.9405,0.14756 -2.05158,0.36632 -1.11108,0.21877 -2.10711,0.39776 -2.2134,0.39776 -0.18118,0 -0.19326,-0.0264 -0.19326,-0.42235 0,-0.42232 0.37918,-1.89668 1.28846,-5.00991 0.29918,-1.02437 0.3967,-1.46332 0.3287,-1.47955 -0.13019,-0.0311 -1.73286,0.55388 -3.9733,1.45021 -1.01443,0.40584 -1.9391,0.7379 -2.05483,0.7379 -0.20903,0 -0.21076,-0.005 -0.26158,-0.72065 -0.0281,-0.39636 -0.0512,-1.30194 -0.0512,-2.0124 v -1.29175 l -0.33459,0.0448 c -1.10139,0.14736 -2.37938,0.2798 -2.69991,0.2798 h -0.37142 l 0.0476,-0.29327 c 0.0678,-0.41806 0.99079,-2.25559 1.41914,-2.82543 0.41837,-0.55654 0.82682,-0.91614 2.13601,-1.88049 1.18954,-0.87621 1.86077,-1.51262 2.28355,-2.16509 0.37616,-0.58053 0.50649,-0.95124 0.74731,-2.12567 0.3341,-1.62931 0.80849,-2.77109 1.68326,-4.05127 1.24139,-1.81673 3.47514,-3.65138 6.01151,-4.93745 1.02701,-0.52074 2.5597,-1.07536 3.40611,-1.23253 1.04808,-0.19462 3.95745,-0.26102 6.2589,-0.14286 1.69439,0.087 3.47818,0.50849 5.255,1.24168 0.41062,0.16945 0.45229,0.20867 0.44948,0.42295 -0.003,0.20663 -0.0738,0.28022 -0.56814,0.58811 -0.83968,0.52298 -3.13112,2.13837 -4.06705,2.86713 -2.36089,1.83831 -3.14351,2.79129 -3.72742,4.53888 -0.20203,0.60462 -0.56235,2.27993 -0.49037,2.27993 0.01,0 1.18305,-0.37174 2.6068,-0.82609 1.42375,-0.45434 2.68606,-0.82633 2.80514,-0.82664 0.27054,-7e-4 0.27166,0.0333 0.0559,1.70632 -0.31258,2.42335 -0.95469,5.90545 -1.38036,7.4855 -0.28945,1.07442 -0.8744,2.86289 -1.22291,3.73901 -1.94236,4.88295 -4.84393,7.2189 -10.14162,8.16467 -1.33621,0.23855 -1.28241,0.25135 -1.2284,-0.29211 z m 9.61348,-11.6309 c 0.15163,-0.51895 0.34475,-1.36921 0.42917,-1.88948 0.13959,-0.86032 0.46502,-3.74968 0.42823,-3.80207 -0.008,-0.012 -1.03228,0.3688 -2.27515,0.84633 -1.24286,0.47753 -2.32831,0.86823 -2.41211,0.86823 -0.20157,0 -0.20034,-0.29416 0.007,-1.70802 0.42438,-2.89187 0.81352,-4.8476 1.15551,-5.80739 0.27843,-0.78142 1.09607,-2.34982 1.82803,-3.50655 l 0.62273,-0.9841 -0.60354,-0.0252 c -1.25949,-0.0526 -3.52116,0.29957 -5.03332,0.78373 -1.72089,0.55098 -2.98565,1.30514 -4.24755,2.53276 -1.12198,1.0915 -2.05729,2.38483 -2.49859,3.45501 l -0.11983,0.29058 1.0029,-0.63749 c 1.36417,-0.86715 2.08489,-1.19795 3.26331,-1.49789 0.78344,-0.1994 1.02147,-0.23401 1.0961,-0.15937 0.1057,0.1057 -0.003,0.64299 -0.94279,4.6659 l -0.52424,2.24376 0.0134,1.18092 c 0.0114,1.0045 0.23729,3.26021 0.38564,3.85128 0.0415,0.16528 0.067,0.1697 0.63094,0.10927 2.14827,-0.23016 3.71214,-0.92913 5.70121,-2.54814 0.38509,-0.31346 0.69592,-0.50703 0.81415,-0.50703 0.17845,0 0.19719,0.0408 0.27983,0.61014 0.14856,1.02333 0.24009,2.14262 0.24625,3.01136 l 0.006,0.82665 0.23551,-0.62983 c 0.12952,-0.34639 0.35956,-1.05442 0.51118,-1.57336 z"
       id="path6" />
  </g>
</svg>
