<?xml version="1.0" encoding="UTF-8" standalone="no"?>
<!-- Created with Inkscape (http://www.inkscape.org/) -->

<svg
   width="256"
   height="256"
   viewBox="0 0 256 256"
   version="1.1"
   id="svg1"
   xmlns="http://www.w3.org/2000/svg"
   xmlns:svg="http://www.w3.org/2000/svg">
  <defs
     id="defs1" />
  <g
     id="layer1"
     transform="matrix(3.7795697,0,0,3.7795697,-309.88438,-379.60721)">
    <path
       style="fill:currentColor"
       d="m 104.94252,165.69621 c -0.0866,-0.0372 -0.33935,-0.0701 -0.56167,-0.0732 -0.51997,-0.007 -1.54498,-0.50387 -1.93853,-0.93948 l -0.27376,-0.30302 -0.0491,-1.56623 c -0.027,-0.86142 -0.0914,-5.90089 -0.14308,-11.19881 -0.0651,-6.67428 -0.11977,-9.63954 -0.17788,-9.65522 -0.79656,-0.215 -1.40751,-0.62624 -1.69048,-1.13788 l -0.18949,-0.34261 0.22071,-4.96033 0.22071,-4.96033 0.61917,-0.91292 0.61917,-0.91292 -3.27786,-10.11659 c -3.30946,-10.21413 -3.43747,-10.65251 -3.43664,-11.76988 6.3e-4,-0.85066 0.11265,-1.18732 0.54053,-1.62464 1.10045,-1.12468 3.23129,-2.12934 4.87319,-2.29764 1.02699,-0.10528 3.00422,-0.11508 3.77896,-0.0187 0.77579,0.0965 1.03862,0.36409 1.35974,1.38452 0.12907,0.41016 1.58532,4.8749 3.23611,9.92165 1.65078,5.04674 3.00143,9.28542 3.00143,9.41929 0,0.25985 -0.10592,0.33897 -0.45377,0.33897 -0.37096,0 -1.38559,0.31801 -2.02617,0.63506 -0.34641,0.17145 -0.55897,0.29071 -0.47237,0.26502 0.0866,-0.0257 0.83209,-0.0667 1.65665,-0.0912 l 1.49919,-0.0445 1.2563,0.2912 c 0.69096,0.16016 1.33044,0.32145 1.42106,0.35843 0.0906,0.037 1.35957,1.50146 2.8199,3.25441 2.34007,2.80897 2.69514,3.20245 2.9922,3.3159 1.30476,0.49829 1.68094,2.03135 0.82385,3.35744 l -0.31523,0.48771 7.97605,13.66625 7.97604,13.66625 v 0.70726 0.70727 l -0.32687,0.2493 c -0.74789,0.57044 -2.05844,0.93658 -3.29464,0.92044 -0.89494,-0.0117 -1.11328,-0.082 -1.45286,-0.46777 -0.36039,-0.40941 -0.51216,-0.82784 -0.63724,-1.7568 -0.56494,-4.19567 -1.10724,-5.76546 -3.30451,-9.56549 -1.3763,-2.38023 -3.64601,-5.82826 -3.78143,-5.74457 -0.036,0.0222 -0.92144,1.22644 -1.96767,2.676 -2.18742,3.03069 -2.1145,2.96901 -2.61647,2.213 -0.97061,-1.46184 -1.68454,-3.62039 -1.95327,-5.90564 -0.1168,-0.99323 -0.0503,-3.56081 0.115,-4.4427 0.27187,-1.45013 0.80675,-3.10588 1.35846,-4.20519 0.14615,-0.2912 0.26572,-0.54669 0.26572,-0.56776 0,-0.0748 -1.84142,0.59809 -2.82236,1.0313 -1.93701,0.85545 -3.93378,2.06051 -5.48348,3.30932 -0.87636,0.7062 -2.3347,2.15306 -2.96006,2.93676 -1.8063,2.26366 -3.15243,5.26508 -3.78433,8.43776 -0.21542,1.08162 -0.25478,3.28688 -0.0749,4.19814 0.2568,1.30112 0.78974,2.60756 1.71893,4.21367 0.51849,0.89624 0.57365,1.08106 0.57275,1.9192 -6.3e-4,0.59425 -0.0337,0.78724 -0.19381,1.13113 -0.10617,0.22805 -0.25639,0.43435 -0.33382,0.45844 -0.0774,0.0241 -0.20231,0.0766 -0.2775,0.11677 -0.16544,0.0883 -0.43725,0.0859 -0.65057,-0.006 z m 0.0394,-26.02375 c 1.98737,-0.16177 5.402,-1.07973 8.31632,-2.2357 1.23855,-0.49127 2.87443,-1.30404 3.84721,-1.91144 0.83032,-0.51845 1.8714,-1.37468 1.82838,-1.50375 -0.12673,-0.38017 -3.0108,-0.18933 -5.38674,0.35645 l -0.73234,0.16822 v 0.52888 c 0,0.99407 -0.5784,1.70569 -1.63634,2.01325 -0.59467,0.17287 -1.58956,0.11861 -2.0343,-0.11095 -0.34129,-0.17617 -0.69344,-0.53946 -0.77646,-0.80103 -0.0489,-0.15416 -0.0513,-0.15416 -0.44214,-1.1e-4 -1.30543,0.51455 -3.12145,1.44988 -4.12515,2.12462 -0.64571,0.43408 -1.40498,1.09888 -1.3353,1.16915 0.10433,0.1052 1.19676,0.30305 1.53212,0.27748 0.19485,-0.0149 0.61999,-0.0486 0.94474,-0.0751 z m 14.48536,26.02168 c -0.0646,-0.0408 -0.19637,-0.0748 -0.29284,-0.0755 -0.28528,-0.002 -2.61283,-2.08514 -3.7398,-3.34716 -0.85163,-0.95368 -1.05164,-1.27659 -2.86412,-4.62405 -0.86123,-1.59061 -1.5836,-2.89186 -1.60525,-2.89165 -0.0665,6.2e-4 -0.99588,1.26809 -1.29452,1.76535 -0.29473,0.49073 -0.81555,1.77394 -1.38328,3.40818 -0.31723,0.91315 -0.34637,0.96442 -0.54801,0.96442 -0.23216,0 -0.29424,-0.0947 -0.56758,-0.86601 -0.35728,-1.00815 -0.46897,-1.7284 -0.51276,-3.30659 -0.0653,-2.35243 0.20172,-3.81732 1.00196,-5.49721 0.76874,-1.61376 1.85585,-3.05757 3.50959,-4.66113 1.42678,-1.38348 3.08297,-2.67438 3.43116,-2.67438 0.18557,0 0.19213,0.0228 0.28915,1.00379 0.23934,2.42017 0.77663,4.77472 1.37761,6.03699 0.61969,1.30158 3.62836,6.22167 3.75626,6.14262 0.0304,-0.0188 0.70007,-1.07963 1.48819,-2.35744 1.74783,-2.83383 1.57056,-2.7309 2.53704,-1.47308 0.93725,1.2198 1.99354,2.72902 2.56122,3.65946 0.84332,1.38225 2.38276,5.04015 2.38276,5.66174 0,0.17881 -0.0349,0.22072 -0.1839,0.22072 -0.14148,0 -0.41461,-0.27981 -1.18414,-1.21311 -0.94715,-1.14871 -2.28825,-2.52604 -3.02225,-3.10388 -0.18337,-0.14437 -0.33464,-0.25065 -0.33614,-0.23619 -0.002,0.0145 -0.1404,0.56094 -0.30867,1.2144 -0.64806,2.5167 -1.13135,3.41027 -2.74952,5.08369 -0.83647,0.86502 -1.09664,1.08931 -1.26359,1.08931 -0.11563,0 -0.24419,0.034 -0.28569,0.0754 -0.0474,0.0474 -0.11902,0.0479 -0.19288,0.001 z"
       id="path3" />
  </g>
</svg>
