<?xml version="1.0" encoding="UTF-8" standalone="no"?>
<!-- Created with Inkscape (http://www.inkscape.org/) -->

<svg
   width="256"
   height="256"
   viewBox="0 0 256 256"
   version="1.1"
   id="svg1"
   xmlns="http://www.w3.org/2000/svg"
   xmlns:svg="http://www.w3.org/2000/svg">
  <defs
     id="defs1" />
  <g
     id="layer1"
     transform="matrix(3.7795462,0,0,3.7795462,-309.88166,-355.78058)">
    <path
       style="fill:#000000;stroke-width:0.93246"
       d="m 118.55047,159.36138 c -0.0253,-0.0568 -0.26269,-0.28033 -0.52766,-0.49679 -2.48879,-2.03302 -4.36617,-4.44337 -6.26315,-8.04123 -0.91769,-1.7405 -0.97404,-1.81473 -1.18358,-1.55911 -0.53675,0.65479 -1.49661,4.47395 -1.49981,5.96759 -0.003,1.1147 -0.62107,-0.25482 -1.08714,-2.40651 -0.32568,-1.50357 -0.3946,-4.14931 -0.14462,-5.55201 0.489,-2.74401 1.78034,-5.50431 3.68753,-7.88227 0.63141,-0.78727 0.70499,-0.8403 0.76386,-0.55061 0.23766,1.16925 0.85232,3.61992 1.08165,4.31247 0.55683,1.68167 1.29639,3.23493 2.30366,4.83832 0.89195,1.41979 2.31557,3.35195 2.46974,3.35195 0.086,0 1.53653,-4.05935 1.73587,-4.85822 0.0528,-0.21149 0.14446,-0.36635 0.20374,-0.34413 0.1806,0.0677 1.64844,2.02726 2.55771,3.41448 1.02181,1.55893 2.91957,5.30085 2.76618,5.45424 -0.0249,0.0248 -0.41275,-0.39632 -0.86211,-0.93583 -0.84072,-1.00944 -2.90706,-3.00584 -3.11113,-3.00584 -0.0631,0 -0.11477,0.30356 -0.11477,0.67457 0,0.37102 -0.12493,1.40538 -0.27763,2.29859 -0.30333,1.77425 -0.8486,3.21668 -1.73754,4.59642 -0.51438,0.79838 -0.6643,0.94103 -0.7608,0.72392 z m -18.52833,-1.95018 c -0.247555,-0.0634 -0.705778,-0.29253 -1.018268,-0.50909 -2.21441,-1.53459 -3.05041,-5.54006 -2.2376,-10.72087 0.24041,-1.53238 0.78937,-3.80789 1.09586,-4.5425 0.50425,-1.20859 0.76711,-1.79905 0.88858,-1.99595 0.07,-0.11356 0.34176,-0.57814 0.6038,-1.03239 0.672698,-1.16614 2.441458,-3.25415 3.816878,-4.50577 2.38286,-2.16839 4.8264,-3.83041 8.17843,-5.5627 3.18754,-1.64727 4.24309,-1.84681 6.1755,-1.16738 1.6698,0.5871 2.71071,1.73936 3.43519,3.80267 0.26584,0.75708 0.64805,1.84109 0.84937,2.4089 0.20133,0.56781 0.64527,1.5863 0.98653,2.2633 1.28469,2.54855 2.24949,3.60591 4.10492,4.49878 1.03302,0.4971 1.67135,0.68398 4.40486,1.28958 3.7288,0.82611 5.6206,3.30369 5.62396,7.36532 0.003,2.82342 -1.00236,6.06047 -2.15352,6.9385 -1.36143,1.03841 -4.74789,0.71685 -6.19217,-0.58797 -0.72658,-0.65642 -1.05451,-1.20817 -1.60642,-2.70276 -0.43929,-1.1896 -1.72602,-3.94208 -2.38093,-5.09311 -1.48243,-2.6054 -4.34784,-6.75521 -4.53511,-6.56793 -0.10575,0.10579 -1.94378,4.56531 -2.21196,5.3669 -0.083,0.24793 -0.21447,0.42958 -0.29223,0.40366 -0.2546,-0.0849 -1.28726,-1.88014 -1.70367,-2.96179 -0.69597,-1.80787 -0.7502,-2.09729 -0.8218,-4.38507 -0.0738,-2.35753 0.0664,-4.07402 0.53056,-6.49632 0.15027,-0.7843 0.24498,-1.45424 0.21046,-1.48877 -0.11475,-0.11475 -1.66272,0.74175 -2.56654,1.42008 -4.24338,3.18473 -7.18474,8.37121 -7.98256,14.07558 -0.2344,1.67589 -0.19937,4.45011 0.075,5.94325 0.30489,1.65906 0.1526,2.44221 -0.65287,3.35727 -0.82818,0.94087 -1.45131,1.20819 -2.93532,1.25929 -0.68138,0.0235 -1.44141,-0.009 -1.68897,-0.0727 z m 31.2512,-19.32076 c -3.53081,-1.56815 -3.50968,-6.69704 0.0439,-10.66667 0.99693,-1.11365 2.2096,-1.97207 3.57699,-2.53209 0.96771,-0.39633 1.24102,-0.44733 2.39977,-0.44781 1.06313,-4.3e-4 1.42655,0.056 1.94323,0.30201 0.87981,0.41881 1.64059,1.19938 2.1143,2.16933 0.36637,0.75014 0.40048,0.94501 0.39671,2.26606 -0.003,1.30189 -0.0488,1.55943 -0.45505,2.5948 -0.76527,1.95075 -1.23095,2.65892 -2.69222,4.09401 -0.9124,0.89606 -1.39602,1.24384 -2.47282,1.77824 -1.29367,0.64203 -1.38549,0.66596 -2.73616,0.71335 -1.22878,0.0431 -1.48468,0.0104 -2.11868,-0.27123 z m -36.703048,-1.55537 c -0.92869,-0.2966 -1.57617,-0.73287 -2.32688,-1.56784 -1.39181,-1.54803 -2.14381,-3.47913 -2.26403,-5.81388 -0.18357,-3.56525 1.16106,-6.46064 3.57194,-7.69145 0.65253,-0.33313 0.95591,-0.40207 1.76934,-0.40207 0.86244,0 1.09743,0.0608 1.93327,0.49999 3.564808,1.87326 4.987838,7.83917 2.870388,12.03381 -1.200698,2.37858 -3.501358,3.59702 -5.554028,2.94144 z m 27.375588,-9.39101 c -1.66864,-0.80512 -2.76592,-2.48746 -3.17878,-4.87366 -0.84724,-4.89687 2.3765,-10.51432 6.54727,-11.40879 2.51291,-0.53893 4.88204,1.32419 5.67594,4.46367 0.38361,1.51693 0.29399,4.06589 -0.1968,5.59692 -0.91397,2.85117 -2.63028,5.0691 -4.74317,6.12942 -0.67248,0.33747 -0.99936,0.40901 -2.03969,0.44641 -1.13345,0.0407 -1.30914,0.0106 -2.06477,-0.35397 z m -13.76516,-1.04608 c -2.27526,-0.55935 -3.92754,-2.53608 -4.844,-5.79524 -0.16499,-0.58673 -0.23282,-1.36407 -0.23423,-2.6842 -0.002,-1.65474 0.0404,-1.994 0.38496,-3.09716 0.46963,-1.5036 0.769,-2.10936 1.53058,-3.09716 0.78315,-1.01578 1.32203,-1.47281 2.24868,-1.90714 0.63654,-0.29835 0.9747,-0.36391 1.87757,-0.364 1.44098,-1.5e-4 2.40521,0.44618 3.58614,1.65998 0.98613,1.01359 1.54832,2.01962 2.07225,3.70832 0.33558,1.0816 0.38502,1.46602 0.38951,3.02833 0.005,1.95756 -0.13298,2.72213 -0.78606,4.33603 -0.90978,2.24828 -2.38997,3.70001 -4.29828,4.21562 -0.81471,0.22013 -1.01939,0.21977 -1.92712,-0.003 z"
       id="path2" />
  </g>
</svg>
