<?xml version="1.0" encoding="UTF-8" standalone="no"?>
<!-- Created with Inkscape (http://www.inkscape.org/) -->

<svg
   width="256"
   height="256"
   viewBox="0 0 256 256"
   version="1.1"
   id="svg1"
   xmlns="http://www.w3.org/2000/svg"
   xmlns:svg="http://www.w3.org/2000/svg">
  <defs
     id="defs1" />
  <g
     id="layer1"
     transform="matrix(3.7795829,0,0,3.7795829,-309.88591,-379.60897)">
    <path
       style="fill:currentColor"
       d="m 115.60411,165.73042 c -0.1299,-0.0351 -0.40902,-0.068 -0.62026,-0.0731 -0.97582,-0.0237 -3.82344,-1.61405 -5.96903,-3.33369 -0.98858,-0.79231 -2.70035,-2.4471 -3.52424,-3.4069 -2.42675,-2.82707 -4.0776,-5.92937 -4.8785,-9.16775 -0.27034,-1.09309 -0.35173,-2.19927 -0.35655,-4.84589 -0.005,-2.5016 0.0896,-3.41524 0.42143,-4.08927 0.48407,-0.9833 1.25684,-1.6316 2.25465,-1.89149 0.66145,-0.17229 2.09988,-0.15663 2.98892,0.0326 2.41325,0.5135 5.73567,2.24527 9.02198,4.70259 l 0.83423,0.62379 0.38606,-0.35225 c 1.7419,-1.58937 4.51919,-3.50325 6.52686,-4.49778 1.89876,-0.94057 3.01002,-1.22136 4.62136,-1.16772 0.95256,0.0317 1.01201,0.0439 1.58092,0.32511 1.68185,0.83121 2.44652,2.66448 2.55318,6.12112 0.10039,3.2534 -0.4963,5.92479 -1.98751,8.89819 -2.02532,4.03837 -5.74601,8.18344 -9.81943,10.93943 -1.14,0.7713 -1.63592,1.0302 -2.14459,1.1196 -0.57913,0.10179 -1.61828,0.13668 -1.88948,0.0634 z m -0.18124,-22.5003 c -0.34614,-0.51342 -1.57352,-2.571 -2.25464,-3.77971 -0.25034,-0.44424 -0.47787,-0.82175 -0.50562,-0.8389 -0.0277,-0.0172 -0.75895,0.14266 -1.62488,0.35514 -0.86594,0.21248 -1.68071,0.37742 -1.81061,0.36653 -0.22002,-0.0184 -0.29279,-0.12215 -1.0634,-1.51563 -0.45497,-0.82271 -0.86708,-1.56369 -0.91579,-1.64663 -0.0824,-0.14027 -0.19633,-0.084 -1.63418,0.80697 -1.65574,1.02599 -1.95223,1.13494 -2.09154,0.76855 -0.13532,-0.35591 -0.23609,-1.11024 -0.3586,-2.68438 -0.15083,-1.93794 -0.31334,-3.31305 -0.42656,-3.60939 -0.0471,-0.12324 -0.17525,-0.54293 -0.28482,-0.93263 -0.11563,-0.41125 -0.46009,-1.22952 -0.82093,-1.95015 -0.90007,-1.79749 -1.17667,-2.6346 -1.28864,-3.89997 -0.11583,-1.30897 -0.11285,-4.43737 0.006,-6.06208 0.14504,-1.98651 0.70621,-3.99157 1.68561,-6.02272 1.81138,-3.75657 5.06621,-6.90826 9.35908,-9.0625 0.77031,-0.38655 1.16694,-0.54235 1.38065,-0.54235 0.16492,0 0.41415,-0.0413 0.55383,-0.0918 0.20838,-0.0754 0.27508,-0.0707 0.37156,0.0257 0.1043,0.1043 0.0916,0.24592 -0.11262,1.25308 -0.81313,4.01065 -1.25006,7.57772 -1.08832,8.88504 0.18075,1.46094 1.10782,3.47316 2.22311,4.82528 l 0.17691,0.21447 1.4945,-2.87363 c 1.82675,-3.5125 1.56509,-3.35192 2.81553,-1.72792 2.19154,2.84625 4.22208,5.93707 5.76693,8.7782 2.80277,5.1546 3.24031,6.29474 3.16694,8.25234 -0.0327,0.87158 -0.0737,1.11123 -0.32353,1.88869 -0.43082,1.3408 -0.5961,2.25772 -0.80097,4.4434 -0.047,0.50172 -0.0609,0.53141 -0.24747,0.53141 -0.14107,0 -0.53158,-0.29293 -1.36438,-1.02347 -0.6417,-0.5629 -1.18194,-1.02346 -1.20052,-1.02346 -0.0186,0 -0.59747,0.88481 -1.28643,1.96624 -1.17919,1.85095 -1.26653,1.96636 -1.48936,1.96821 -0.16558,0.001 -0.50224,-0.17547 -1.12034,-0.5885 -0.486,-0.32475 -0.9109,-0.59004 -0.94422,-0.58953 -0.0333,5.2e-4 -0.28245,0.43451 -0.55363,0.96442 -0.27118,0.52992 -0.93561,1.72437 -1.47652,2.65433 -0.54091,0.92996 -1.0034,1.75366 -1.02777,1.83044 -0.031,0.0975 -0.12485,0.13959 -0.31162,0.13959 -0.23755,0 -0.30129,-0.0504 -0.57251,-0.45269 z m 0.79917,-13.14763 c 1.6821,-2.08908 2.35033,-3.77774 2.66406,-6.73228 l 0.0981,-0.92405 h 0.2144 c 0.36427,0 1.73349,1.09486 3.04463,2.43455 l 0.89197,0.91141 -0.56596,-1.14157 c -0.74928,-1.51134 -1.20443,-2.25608 -2.16249,-3.53837 -0.89909,-1.20337 -2.3978,-3.02597 -2.44742,-2.97635 -0.018,0.018 -0.55863,1.16344 -1.20144,2.54547 -1.37251,2.95084 -1.30455,2.88003 -1.93856,2.01991 -1.77739,-2.41129 -3.33921,-4.70772 -3.92152,-5.76603 -0.59743,-1.0858 -1.18544,-2.90564 -1.67625,-5.18782 -0.15432,-0.71759 -0.29175,-1.31588 -0.3054,-1.32953 -0.0431,-0.0431 -1.58698,1.64514 -2.18027,2.38411 -1.62487,2.02388 -2.82542,4.42642 -3.22593,6.45572 -0.0713,0.36136 -0.10778,1.09322 -0.10589,2.12567 0.002,1.33702 0.0299,1.69928 0.18223,2.40121 0.17849,0.82265 0.42942,1.64346 0.68592,2.24376 l 0.13457,0.31491 0.2909,-1.25965 c 0.56047,-2.42698 0.79455,-3.06332 1.57355,-4.27772 0.66556,-1.03754 0.47409,-1.21307 2.87712,2.63757 2.21039,3.54193 2.45816,3.86602 3.93363,5.14522 0.99613,0.86363 2.50105,2.03778 2.61711,2.0419 0.0523,0.002 0.28757,-0.23576 0.52291,-0.52804 z"
       id="path7" />
  </g>
</svg>
