<?xml version="1.0" encoding="UTF-8" standalone="no"?>
<!-- Created with Inkscape (http://www.inkscape.org/) -->

<svg
   width="256"
   height="256"
   viewBox="0 0 256 256"
   version="1.1"
   id="svg1"
   xmlns="http://www.w3.org/2000/svg"
   xmlns:svg="http://www.w3.org/2000/svg">
  <defs
     id="defs1" />
  <g
     id="layer1"
     transform="matrix(3.7795398,0,0,3.7795398,-309.88094,-379.60316)">
    <path
       style="fill:currentColor"
       d="m 111.47635,165.716 c -0.0294,-0.0475 -0.13907,-0.0864 -0.24377,-0.0864 -0.44708,0 -0.63558,-0.8728 -0.36557,-1.69266 0.0856,-0.2598 0.35891,-0.93293 0.60745,-1.49584 0.32074,-0.72642 0.54831,-1.4119 0.7841,-2.36185 0.44034,-1.77403 0.72671,-3.28717 0.62861,-3.32152 -0.0425,-0.0149 -0.76779,-0.42882 -1.61184,-0.91989 l -1.53465,-0.89286 -0.42138,0.79575 c -1.24909,2.35884 -2.65459,4.55815 -3.45775,5.41065 -0.61029,0.64778 -1.06968,0.86679 -1.927,0.91868 -1.06494,0.0645 -1.39961,-0.20282 -1.39704,-1.11573 0.002,-0.61448 0.11116,-1.08 0.86077,-3.66172 0.5893,-2.0296 0.72906,-2.73114 0.9427,-4.73191 0.0902,-0.84436 0.17868,-1.64687 0.19671,-1.78335 0.0309,-0.23407 -0.005,-0.27394 -0.62954,-0.70267 -0.36427,-0.24999 -0.67949,-0.43734 -0.7005,-0.41634 -0.0898,0.0898 -0.52359,1.12578 -0.85686,2.04642 -0.37603,1.03873 -0.73488,2.28018 -0.95858,3.3162 -0.11896,0.55096 -0.14972,0.61014 -0.31709,0.61014 -0.20727,0 -0.2034,0.0142 -0.34309,-1.26034 -0.08,-0.72973 -0.33367,-1.63313 -0.58789,-2.09346 -0.11966,-0.21666 -0.12359,-0.18196 -0.077,0.67871 0.0283,0.52178 0.008,1.35833 -0.0472,1.96948 l -0.0964,1.06242 0.3931,0.3931 c 0.50944,0.50943 0.67882,1.03783 0.628,1.95903 -0.043,0.78022 -0.28011,1.29576 -0.81058,1.76269 -0.35774,0.3149 -0.92167,0.56699 -1.26839,0.56699 -0.098,0 -0.20004,0.0354 -0.2268,0.0787 -0.0594,0.0961 -0.43301,0.10558 -0.43301,0.011 0,-0.0373 -0.17472,-0.0884 -0.38826,-0.11374 -0.7926,-0.0939 -1.52705,-0.67787 -1.81271,-1.44134 -0.20367,-0.54436 -0.21602,-1.5722 -0.0245,-2.03802 0.18846,-0.45837 0.15467,-0.94103 -0.1709,-2.44058 -0.33209,-1.52966 -0.73286,-2.80011 -1.06819,-3.3862 -0.4533,-0.7923 -1.38931,-1.52081 -2.77045,-2.15631 -1.3672,-0.62907 -3.84357,-1.4258 -4.42574,-1.4239 -0.43826,0.001 -1.50352,0.38366 -2.16575,0.77708 -0.30002,0.17824 -0.61901,0.32407 -0.70886,0.32407 -0.25925,0 -0.20094,-0.36219 0.1515,-0.941 0.17013,-0.27939 0.29772,-0.51958 0.28354,-0.53376 -0.0142,-0.0142 -0.45886,0.0278 -0.9882,0.0934 -0.86665,0.1073 -0.97455,0.10703 -1.08429,-0.003 -0.0909,-0.0909 -0.0992,-0.14454 -0.0324,-0.21128 0.0492,-0.0492 0.0894,-0.1472 0.0894,-0.21783 0,-0.0706 0.25663,-0.31154 0.57029,-0.53535 l 0.57029,-0.40693 h -0.53655 c -0.36137,0 -0.57346,-0.0369 -0.64962,-0.11308 -0.0707,-0.0707 -0.0833,-0.13145 -0.0337,-0.1621 0.0436,-0.027 0.0793,-0.11463 0.0793,-0.19482 0,-0.17061 0.41705,-0.39101 1.19066,-0.62925 0.70906,-0.21836 1.11751,-0.64881 1.24453,-1.31156 0.34986,-1.82541 0.5958,-2.62641 1.15264,-3.75408 0.66861,-1.35401 1.68398,-2.61929 2.74406,-3.41947 0.26296,-0.19849 0.50798,-0.3868 0.54449,-0.41847 0.0365,-0.0317 -0.16861,-0.33593 -0.45583,-0.67613 -0.58556,-0.6936 -1.0812,-1.62393 -1.27325,-2.38994 -0.16932,-0.67537 -0.11091,-2.07431 0.12256,-2.93581 0.48433,-1.78707 1.55537,-3.59036 3.26685,-5.50031 0.71001,-0.79234 0.87066,-0.93256 1.06849,-0.93256 0.25757,0 0.24747,-0.0233 0.39245,0.90538 0.222,1.42197 0.50295,2.09555 1.3556,3.25004 0.91885,1.24411 1.54272,2.24473 2.00208,3.21112 0.45604,0.9594 0.81577,2.17655 0.81577,2.76015 v 0.34418 h 0.65021 0.65021 l 0.18922,-0.53141 c 0.10406,-0.29228 0.40403,-0.95655 0.66659,-1.47616 0.40071,-0.79301 0.57252,-1.03984 1.06973,-1.53684 0.95664,-0.95621 2.20336,-1.51605 4.29259,-1.92759 0.56291,-0.11088 1.17863,-0.27668 1.36826,-0.36844 0.4163,-0.20143 1.30797,-0.91345 1.89628,-1.51423 0.28484,-0.29088 0.49394,-0.43943 0.61852,-0.43943 h 0.18821 l -0.0367,2.69644 c -0.0393,2.8905 -0.14058,3.98948 -0.49881,5.41258 -0.23995,0.95326 -0.65957,1.81227 -1.04219,2.1335 l -0.29406,0.24688 0.54262,0.52215 c 0.59458,0.57215 1.11815,1.26106 1.39852,1.84016 0.1455,0.30053 0.22759,0.38081 0.42123,0.41195 0.13228,0.0213 1.72848,0.23604 3.5471,0.47726 7.61071,1.00947 8.73574,1.13887 9.89785,1.13849 0.40176,-1.4e-4 1.29014,0.0395 1.97419,0.0881 0.68403,0.0486 1.25843,0.0736 1.27644,0.0556 0.018,-0.018 -0.0203,-0.20823 -0.0851,-0.42271 -0.42424,-1.40426 -0.51002,-4.09469 -0.19693,-6.1765 0.25961,-1.72622 0.6198,-3.29674 1.14303,-4.98396 l 0.11732,-0.37835 -0.48959,-0.22103 c -0.75948,-0.34286 -1.81769,-0.97676 -2.38752,-1.43018 -2.22067,-1.76704 -4.64596,-7.31049 -5.07518,-11.60023 -0.13397,-1.33889 -0.0555,-3.75514 0.16211,-4.99464 0.34846,-1.98441 0.95624,-3.81086 1.85177,-5.56477 0.57201,-1.12032 1.49221,-2.54749 1.67941,-2.60467 0.0719,-0.022 0.1974,-0.076 0.27899,-0.12015 0.0883,-0.0477 0.16795,-0.0511 0.19682,-0.008 0.0267,0.0396 0.10164,0.0917 0.16658,0.11578 0.0706,0.0262 0.28817,0.56204 0.54103,1.33264 1.15801,3.52898 2.40035,6.50998 3.28401,7.87993 0.42628,0.66086 1.37185,1.65691 2.10851,2.22106 0.52445,0.40164 1.86458,1.25064 1.90412,1.2063 0.01,-0.0109 -0.0654,-1.22443 -0.16692,-2.69665 -0.10157,-1.47222 -0.18622,-2.89819 -0.18811,-3.16882 -0.003,-0.45316 0.01,-0.49205 0.16705,-0.49205 0.41338,0 4.74991,2.51081 7.38743,4.27725 1.87928,1.25863 4.88927,3.5496 5.83175,4.43868 1.89632,1.7889 3.48237,4.68577 4.08281,7.45716 0.37409,1.72663 0.50999,4.38198 0.31575,6.16918 -0.41209,3.79149 -2.35681,7.5014 -5.78116,11.02858 -1.86456,1.92055 -4.67018,4.18256 -5.18773,4.18256 -0.18827,0 -0.20617,-0.0275 -0.20617,-0.31693 v -0.31694 l -0.218,0.11273 c -0.11989,0.062 -0.5716,0.22625 -1.00378,0.365 -0.43219,0.13874 -1.14282,0.39036 -1.57919,0.55914 l -0.79339,0.30689 -1.98178,3.18247 c -1.08998,1.75036 -1.98178,3.19925 -1.98178,3.21974 0,0.0205 0.24336,0.21768 0.54079,0.43818 l 0.54079,0.4009 0.16635,1.04334 c 0.69066,4.33184 0.60128,6.84436 -0.30765,8.64858 -0.44326,0.87987 -0.82186,1.17408 -1.50715,1.17124 -0.60253,-0.002 -1.02481,-0.21937 -1.28215,-0.65849 -0.44917,-0.76645 -1.03851,-2.71698 -1.65179,-5.46687 -0.19628,-0.88012 -0.35688,-1.6207 -0.35688,-1.64574 0,-0.0571 -4.86876,0.0436 -6.29353,0.13008 -1.0367,0.063 -1.06188,0.0688 -1.2447,0.29105 -0.10263,0.12473 -0.60986,1.09034 -1.12718,2.1458 -1.36672,2.78844 -2.10718,3.8483 -3.31319,4.74236 -0.60635,0.4495 -0.85388,0.52594 -1.92722,0.59512 -0.42205,0.0272 -0.6583,0.0118 -0.69352,-0.0452 z m 12.50157,-9.88303 c 2.68973,-0.73202 4.84316,-2.84418 5.48336,-5.37827 0.0702,-0.27779 0.11677,-0.3346 0.2744,-0.3346 0.10443,0 0.22059,0.0549 0.25812,0.12195 0.0785,0.14025 0.16843,-0.0187 0.42117,-0.74442 0.60053,-1.72434 -0.70607,-2.857 -3.31581,-2.87438 -3.35868,-0.0224 -5.79371,1.96362 -6.99031,5.70124 -0.24957,0.77957 -0.53847,2.15057 -0.57923,2.74888 l -0.0237,0.34767 0.54907,0.18655 c 1.2473,0.42377 2.85465,0.51612 3.92292,0.22538 z m -13.37583,-8.63571 c -0.063,-0.17865 -0.1146,-0.43177 -0.1146,-0.56249 v -0.23767 l 0.49302,0.046 c 0.27117,0.0253 0.56344,0.071 0.64951,0.1016 0.0861,0.0306 0.006,-0.0764 -0.17811,-0.23761 -0.25041,-0.21941 -0.33459,-0.35105 -0.33459,-0.52322 0,-0.22195 0.0132,-0.23005 0.37396,-0.23011 l 0.37396,-7e-5 -0.33584,-0.16623 c -0.41157,-0.20373 -0.62298,-0.46163 -0.72713,-0.88707 -0.0437,-0.17837 -0.13074,-0.48374 -0.1935,-0.67859 l -0.1141,-0.35428 0.0555,0.39364 c 0.0305,0.2165 0.0554,0.80106 0.0554,1.29902 v 0.90537 l -0.19728,0.0231 c -0.17642,0.0206 -0.23344,-0.0501 -0.53924,-0.66919 -0.51598,-1.04452 -1.00258,-1.83154 -1.4278,-2.3093 l -0.38261,-0.42989 0.28367,0.74792 c 0.24122,0.63599 0.28816,0.86574 0.31364,1.53521 0.0376,0.98663 -0.0864,1.4845 -0.37815,1.51907 -0.16482,0.0195 -0.22512,-0.0366 -0.37834,-0.35193 -0.51688,-1.06391 -1.05835,-1.69029 -1.68889,-1.95374 l -0.29265,-0.12228 0.23396,0.41507 c 0.28844,0.51175 0.44881,1.11086 0.52204,1.9503 0.0528,0.60561 0.0656,0.63977 0.22246,0.59407 0.0915,-0.0267 0.62698,-0.0696 1.18989,-0.0954 1.19797,-0.0549 1.7504,0.0345 2.25303,0.36466 0.18975,0.12465 0.35229,0.2294 0.36119,0.23276 0.009,0.003 -0.0354,-0.14004 -0.0984,-0.31868 z m -16.690133,-0.70422 c 0.60946,-0.22803 1.23345,-0.8195 1.55621,-1.47511 0.21157,-0.42977 0.25776,-0.61588 0.25776,-1.03864 0,-1.35284 -1.28035,-2.63162 -2.63905,-2.63581 -0.42285,-0.001 -0.60573,0.0439 -1.03699,0.25618 -0.66191,0.32586 -1.24596,0.94536 -1.48291,1.57293 -0.73701,1.952 1.38158,4.05505 3.34498,3.32045 z m -1.05961,-0.95818 c -0.532,-0.28518 -0.81194,-0.73323 -0.85209,-1.36379 -0.0416,-0.65299 0.124,-1.10815 0.53979,-1.48379 0.37942,-0.34279 0.54061,-0.38547 1.32155,-0.34997 0.53035,0.0241 0.65752,0.059 0.90604,0.24856 0.23141,0.17651 0.2891,0.27306 0.2891,0.48385 0,0.23063 -0.05,0.29543 -0.40276,0.52178 l -0.40275,0.25845 0.52085,0.26258 c 0.59004,0.29746 0.6529,0.46116 0.35942,0.93602 -0.26158,0.42325 -0.63943,0.60664 -1.32651,0.64383 -0.51915,0.0281 -0.64527,0.007 -0.95264,-0.15752 z m 7.601203,0.81155 c 1.19042,-0.41839 2.12535,-1.74228 1.96562,-2.78334 -0.0842,-0.54902 -0.48005,-1.27152 -0.90675,-1.65517 -0.61045,-0.54884 -1.02679,-0.71833 -1.771343,-0.72111 -0.54454,-0.002 -0.69211,0.0292 -1.08971,0.23066 -1.31717,0.6674 -1.90381,2.1499 -1.33234,3.367 0.38683,0.82387 0.88999,1.28845 1.69773,1.56755 0.53092,0.18345 0.90307,0.182 1.436793,-0.006 z m -0.846993,-0.71291 c -0.58457,-0.17621 -0.98789,-0.72614 -1.0618,-1.44775 -0.0952,-0.92943 0.41128,-1.68077 1.25026,-1.85473 0.952263,-0.19743 1.876733,0.24569 1.873853,0.89819 -8.9e-4,0.20188 -0.0672,0.28127 -0.4335,0.51887 l -0.43244,0.28052 0.47286,0.22601 c 0.43607,0.20842 0.47286,0.24611 0.47286,0.48445 0,0.32782 -0.4216,0.77144 -0.84485,0.88898 -0.34406,0.0956 -0.989373,0.0983 -1.297243,0.005 z m 27.059873,-20.39177 c -0.48883,-1.69458 -0.59073,-2.32706 -0.59073,-3.66634 v -0.97841 h 0.23223 c 0.24142,0 2.16217,1.23314 4.8834,3.13522 0.71354,0.49873 1.5575,1.027 1.87552,1.17392 0.73408,0.33917 2.35435,0.87927 3.68796,1.22933 l 1.03488,0.27165 0.0473,-0.23634 c 0.11764,-0.58821 0.21432,-2.1249 0.16741,-2.66083 -0.10419,-1.1903 -0.61435,-2.93522 -1.34063,-4.5855 -0.19435,-0.4416 -0.35336,-0.8882 -0.35336,-0.99243 0,-0.18146 0.0165,-0.18734 0.38681,-0.13821 0.60474,0.0802 2.29765,0.56543 3.17648,0.91042 0.43888,0.17229 0.80714,0.30408 0.81835,0.29287 0.0331,-0.0331 -1.60933,-1.33171 -2.33471,-1.84595 -1.05874,-0.75057 -4.74292,-2.7807 -4.85071,-2.67293 -0.019,0.019 0.10818,1.19294 0.28248,2.60886 0.1743,1.41593 0.3169,2.62548 0.3169,2.68789 0,0.34367 -0.91003,-0.0998 -3.85768,-1.88007 -3.03354,-1.8321 -3.95889,-2.64546 -6.24096,-5.48565 -0.43489,-0.54125 -0.81566,-0.99428 -0.84614,-1.00672 -0.0758,-0.0309 -0.37149,1.40702 -0.50656,2.4632 -0.26066,2.03826 -0.22444,3.64674 0.12041,5.34717 0.41709,2.05659 1.31793,3.87816 2.96216,5.98971 0.58666,0.7534 1.28817,1.5565 1.32631,1.51836 0.0126,-0.0126 -0.16606,-0.67829 -0.3971,-1.47922 z"
       id="path4" />
  </g>
</svg>
